<svg xmlns="http://www.w3.org/2000/svg" width="144.9" height="144" viewBox="0 0 144.9 144"><title>icon</title><g id="Type"><path d="M1.5,80.1V78.8l8.8-.3V73.4h1.1l.3,6.4Z" fill="#231f20"/><path d="M1.7,68.4V66.9l10.4-2.6L12,65.7l-3.1.8-.4,3.9,2.9,1.4v1.4Zm6.1-1.6L3.2,67.9l4.3,2Z" fill="#231f20"/><path d="M2.6,61,3,59.7l4.7,1.2L4.2,54.8,4.7,53l2.8,5.1,6.9-2.8L14,57,8.2,59.3l1.1,2,3.4.8-.3,1.3Z" fill="#231f20"/><path d="M5.5,50.7,8.3,44l1.1.5L7.1,50l2.8,1.1,2.2-5,1,.4L11,51.6l3.2,1.3,2.3-5.6,1.1.5-2.8,6.8Z" fill="#231f20"/><path d="M9.7,41.2l3.6-6,1,.6-2.8,4.9,2.6,1.5L16.6,38l1.1.6-2.6,4.2,4,2.4-.7,1.1Z" fill="#231f20"/><path d="M14.8,33.2l.8-1.1,8.1,6-.8,1.1Z" fill="#231f20"/><path d="M17.5,29.6l4.9-5.4.9.8-4,4.4,2.3,2.1,3.7-4.1.8.8-3.7,4.1,2.5,2.3L29,30.1l.9.8-5,5.4Z" fill="#231f20"/><path d="M24.6,22.2l1-.9,5.7,6.8,3.9-3.3.7,1L31,29.9Z" fill="#231f20"/><path d="M31.5,16.6l3.4-2.2a4,4,0,0,1,3.5-.4A5.7,5.7,0,0,1,41,16.3a8.2,8.2,0,0,1,1.1,2.8,3.6,3.6,0,0,1-1.9,3.8l-3.4,2.2Zm7.9,5.5a3.5,3.5,0,0,0,.9-.7,2.8,2.8,0,0,0,.5-1.6,3.7,3.7,0,0,0-.4-1.6l-.4-.9a4.8,4.8,0,0,0-2.2-2.1,2.6,2.6,0,0,0-2.5.4l-2,1.2,4.1,6.6Z" fill="#231f20"/><path d="M122.8,24.6l1.1,1-4.6,9.7-1.1-1.1,1.4-2.8-2.7-2.9L114,29.9l-1-1Zm-2.6,5.7,2-4.2-4.3,2Z" fill="#231f20"/><path d="M128,30.1l.9,1.3-3.7,8.8,6.6-4.7.8,1.1-8.2,5.8-.9-1.2,3.6-8.9L120.6,37l-.8-1Z" fill="#231f20"/><path d="M134.2,39.5l.7,1.2-8.8,4.9-.6-1.2Z" fill="#231f20"/><path d="M136.5,43.4l.7,1.8-6.7,5.9,8.9-.6.7,1.8-9.3,3.8-.4-1.2,5.4-2.2,1-.4,1.4-.6-8.9.6-.5-1.3,6.7-5.9-.3.2-1,.4-1,.4-5.5,2.3-.5-1.2Z" fill="#231f20"/><path d="M141.7,58.4l.3,1.5-9,5.7-.3-1.4,2.7-1.7-.9-3.8-3.1-.4-.3-1.4Zm-5.3,3.5,4-2.5-4.7-.6Z" fill="#231f20"/><path d="M143.1,65.7V67l-8.8.8.4,5h-1.2l-.5-6.3Z" fill="#231f20"/><path d="M15.3,96.2l-6.2,4.7,7.8-1.1.5,1.2-6,5.1,7.6-1.5.6,1.3-9.5,1.5-.6-1.2,6.2-5.1-8,1.1L7.2,101l7.5-6.1Z" fill="#231f20"/><path d="M20.2,106.4l3.8,5.7-1,.7-3.1-4.7-2.3,1.6,2.8,4.3-.9.6-2.8-4.3L14,112l3.2,4.8-.9.6-3.9-5.8Z" fill="#231f20"/><path d="M24.8,113.1l.9,1-6.2,5.4,3.1,3.6-.8.7-4-4.5Z" fill="#231f20"/><path d="M29.5,118.4l4.9,4.4-.8.9-3.9-3.6-1.9,2.1,3.5,3.1-.8.8L27.1,123l-2.9,3.2-.9-.9Z" fill="#231f20"/><path d="M36.8,124.5l1.2.9L35.4,135l-1.1-.8.8-2.9-3-2.1-2.5,1.6-1.1-.7Zm-1.4,5.7,1.2-4.2L33,128.5Z" fill="#231f20"/><path d="M41.5,127.7l3.8,2a4.5,4.5,0,0,1,1.5,1.1,2.1,2.1,0,0,1,.1,2.5,2.5,2.5,0,0,1-.9,1.1,2.8,2.8,0,0,1-1.3.3,2,2,0,0,1,.5.9,2.1,2.1,0,0,1-.3,1.2l-.5,1.1a4.1,4.1,0,0,0-.3.8,1.5,1.5,0,0,0,.1.7h-.1l-1.4-.7a.4.4,0,0,1,.1-.3,1.7,1.7,0,0,1,.3-.7l.6-1.4a1.4,1.4,0,0,0,0-1.4l-1-.7L40.2,133l-1.8,3.6-1.2-.6Zm1.8,5.7a1.9,1.9,0,0,0,1.4.3c.4,0,.7-.3,1-.9a1.4,1.4,0,0,0,0-1.5l-.8-.6-2.7-1.4-1.5,2.8Z" fill="#231f20"/><path d="M49.6,131.7l6.5,2.2-.4,1.1-5.3-1.8-.9,2.6,4.9,1.7-.4,1.1-4.9-1.7-1,3,5.4,1.8-.4,1.1-6.6-2.3Z" fill="#231f20"/><path d="M105.1,134.3a2,2,0,0,0,1,.9,2.2,2.2,0,0,0,2.4-.3,2.4,2.4,0,0,0,.9-.8,1.6,1.6,0,0,0,.3-1.8,1.7,1.7,0,0,0-1-.7l-1.5.3-1.3.4a5.4,5.4,0,0,1-1.8.4,2,2,0,0,1-1.6-1.1,2.9,2.9,0,0,1-.3-2.2,3.1,3.1,0,0,1,1.7-1.9,4.5,4.5,0,0,1,2.5-.7,2.8,2.8,0,0,1,2,1.4l-1.1.7a2.2,2.2,0,0,0-.9-.8c-.6-.3-1.2-.1-2,.3a2.4,2.4,0,0,0-1.1,1.2,1.7,1.7,0,0,0,.1,1.2,1.2,1.2,0,0,0,1,.6l1.7-.4,1.3-.4,1.5-.3a2.7,2.7,0,0,1,1.9,3.7,4.4,4.4,0,0,1-1.9,1.9,3.7,3.7,0,0,1-2.8.6,3.1,3.1,0,0,1-2-1.6Z" fill="#231f20"/><path d="M115.2,121.2a4.6,4.6,0,0,1,2.7,1.8,5.3,5.3,0,0,1,1.4,3.4,4.4,4.4,0,0,1-1.8,3.5,4.1,4.1,0,0,1-3.6,1.1,5.2,5.2,0,0,1-3-2,5.6,5.6,0,0,1-1.3-3.1,4.2,4.2,0,0,1,1.7-3.6A4,4,0,0,1,115.2,121.2Zm2.9,5.3a4.5,4.5,0,0,0-1.2-2.6,3.6,3.6,0,0,0-2.3-1.5,3,3,0,0,0-2.5.7,3.2,3.2,0,0,0-1.3,2.3,4.5,4.5,0,0,0,1.2,2.8,4.8,4.8,0,0,0,2.2,1.6,3.2,3.2,0,0,0,2.7-.8A2.9,2.9,0,0,0,118.1,126.5Z" fill="#231f20"/><path d="M120.7,114.3a3,3,0,0,1,2.3.6l-.8,1a2.4,2.4,0,0,0-1.6-.4,2.6,2.6,0,0,0-1.6,1,2.7,2.7,0,0,0-.8,2.3,4.7,4.7,0,0,0,1.7,2.6,4.5,4.5,0,0,0,2.5,1.2,2.5,2.5,0,0,0,2.2-1,2.3,2.3,0,0,0,.7-2.3,4.6,4.6,0,0,0-.7-1.4l.8-1a4.3,4.3,0,0,1,1.1,2.5,3.9,3.9,0,0,1-1.1,3,3.8,3.8,0,0,1-2.6,1.4c-1.3.2-2.6-.4-4-1.6a4.6,4.6,0,0,1-1.7-3.1,4.1,4.1,0,0,1,1.1-3.4A4.3,4.3,0,0,1,120.7,114.3Z" fill="#231f20"/><path d="M121.9,111.6l.7-1,7.6,5.5-.8,1.1Z" fill="#231f20"/><path d="M123.8,109.1l3.4-5.9,1,.6-2.8,4.8,2.4,1.5,2.7-4.5.9.5-2.7,4.5,2.8,1.6,2.9-4.9.9.6-3.5,6Z" fill="#231f20"/><path d="M130.5,95.7l1,.4-1.2,3,7.5,3.1-.5,1.2-7.5-3.2-1.3,3-1-.4Z" fill="#231f20"/><path d="M130.5,95.7l.4-1.4,5-1.5L132.3,89l.4-1.4,4.4,4.9,3.7.9-.4,1.3-3.6-1Z" fill="#231f20"/><circle cx="72.5" cy="74.8" r="58.1" fill="none" stroke="#231f20" stroke-miterlimit="10" stroke-width="1.02"/></g><g id="Dog"><path d="M105.1,99.8l5.6,5s1.6,3.1-2.6,2.6c0,0-.1,1.8-3.9,1.4,0,0-.5,1.4-3.8.9a6.7,6.7,0,0,1-4.8-3S98.3,102.1,105.1,99.8Z" fill="#fff"/><path d="M101.6,54.3s.7,11.5,0,17.7,2.3,17.7,3.5,27.8c0,0-6.9,4.1-8.9,7.6H50.9s-11.8-7.6-11-19.6,10.2-20,10.2-20A56.1,56.1,0,0,1,61.2,41.4s.9-5.8,3-7.9c0,0-2.8-4.6-2.8-8.1s1-6.5-3-8.5H54.2s-4.9-1.1-4.9-3.9S57.9,4.5,62.7,2.4c2.1-1,3.5,1.6,3.5,1.6h6.3a18.4,18.4,0,0,1,7.8-1.8c4.4,0,11,2.8,11,2.8s3.1-3.7,5.4-3.7,8.1,3.7,12.4,6.5-2.9,8.1-2.9,8.1-2.5,4.5-5.9,0c0,0,1.5,5.6-3.6,10.8v8.6S101.3,39.3,101.6,54.3Z" fill="#231f20"/><path d="M77.8,27.3s6.8,5,7.8,8.2-2.5,6.2-7.8,6.2-9.6,0-9.6-4.4,4.4-8.8,5.5-9.9l.9-11.2s1.8-.6,2.4,0S77.8,27.3,77.8,27.3Z" fill="#fff"/><path d="M80.7,21.8s1.9-3.6,5-3.6,5,1.5,5,3-.4,4.8-4.1,5.6S80.7,21.8,80.7,21.8Z" fill="#fff"/><path d="M69.2,18.2s2.3,1,2.3,4.7a4.4,4.4,0,0,1-3.3,4.5s-4-1.7-4-3.9S65.7,19.3,69.2,18.2Z" fill="#fff"/><path d="M83.6,21.8s0-1.3,2.1-1.3,2.1,1.3,2.1,1.3-.9,2.1-2.1,2.1S83.6,21.8,83.6,21.8Z" fill="#231f20"/><path d="M68.8,21.2s-1.7.3-1.7,1.6,1.7,1.7,1.7,1.7.9.1,1.7-1.6S68.8,21.2,68.8,21.2Z" fill="#231f20"/><path d="M72.9,33.3s-2.2,1.6-2.2,3.4,1.7,2.8,4.4,2.8,5.1-1,5.1-3.1a3.7,3.7,0,0,0-1.9-3.1Z" fill="#231f20"/><path d="M64.2,4.5s1.7-.4,1.7,1.7-8.3,8.7-8.3,8.7-2.9.3-1.5-1.4Z" fill="#fff"/><path d="M98.1,2.4S95.9,2,96.6,3.9s3.3,4.6,3.3,4.6,1.2,2-1.7,3.3c0,0-1.2,2.4,1.5,1.5s2.7-4.6,2-5.4S98.1,2.4,98.1,2.4Z" fill="#fff"/><path d="M60.8,37.9v0Z" fill="none"/><path d="M99.9,48.1l1.3-1.8c.7-2.9-1.4-8.2-1.4-8.2l.6-1.7c.7-3.5-3.7-6-3.7-6A9.6,9.6,0,0,1,91,36.7c-4.8,2.2-10,6.6-10,7.4s-5.5-1-5.9.6c-3.2-1.5-5.3-2.7-7.5-5.8.5-.9-.5-4-.5-4-2.4-2.3-4.3-2.2-4.3-2.2a10.5,10.5,0,0,0-4.7-1.2c-2.7,0-7.8,7.4-7.8,7.4s6.2,1,10.4-.5h0a7,7,0,0,0,1.9,5.5c2.8,2.8,8.1,7.1,11.6,7.9a15.2,15.2,0,0,0,6.2,0l13,9.1s3.4,3,5.3,0a66.8,66.8,0,0,0,3.7-7S104,49.1,99.9,48.1Z" fill="#fff"/><path d="M94.7,51.8,98.1,49l1.7-1.3a7.9,7.9,0,0,0,1.4-1.7,3.6,3.6,0,0,1-.9,2.2,8.1,8.1,0,0,1-1.6,1.6A7.6,7.6,0,0,1,96.8,51Z" fill="#231f20"/><path d="M100.4,36.2a4.6,4.6,0,0,1-.5,2.3,13.3,13.3,0,0,1-1.4,1.9,8,8,0,0,1-1.7,1.5A7.1,7.1,0,0,1,94.7,43c1-1.2,2.1-2.2,3.1-3.3A15.2,15.2,0,0,0,100.4,36.2Z" fill="#231f20"/><path d="M57.5,36.2a9.7,9.7,0,0,1,2.2-1.9l1.2-.7,1.2-.7c0,.5-.4.9-.7,1.3a9.4,9.4,0,0,1-1.2.9A7.3,7.3,0,0,1,57.5,36.2Z" fill="#231f20"/><path d="M106.1,104.8l.8.4.6.6a3.1,3.1,0,0,1,.6,1.6,1.8,1.8,0,0,1-.5-.7l-.5-.6A14.7,14.7,0,0,1,106.1,104.8Z" fill="#231f20"/><path d="M103,106.8a1.7,1.7,0,0,1,1.1.6,1.5,1.5,0,0,1,.2,1.3l-.3-.5-.3-.5Z" fill="#231f20"/></g><g id="Cat"><path d="M60.8,114.5s-2.5,1.9-7.9,1.9-6.5-2.7-6.5-2.7-9-.7-11.5-9.5S51.2,71.9,51.2,71.9s1.4-5-.6-9.4-4.7-7-4.7-9.7,2-4.2,3.7-3.9,5.3,1.7,6.3,3.9a31.7,31.7,0,0,1,12.2-2.6c6.6,0,9.2,1.4,9.2,1.4a11.1,11.1,0,0,1,7.4-5.2c5.2-.9,1.9,10.8.9,11.8s-.3,3.9-.3,3.9a10.5,10.5,0,0,1-1.1,7.1c-2.1,3.5-1,9.6-.3,11.8s1.4,12-.2,16.5S80,106.2,80.9,110s3.7,3.9-.3,6.8-9.1-1.1-9.1-1.1" fill="#fff" stroke="#231f20" stroke-miterlimit="10"/><path d="M67.6,104.5,73,96.8c.9-1.3,1.8-2.6,2.6-3.9a18.3,18.3,0,0,0,2.1-4.2,11.3,11.3,0,0,0,.2-4.5,5.4,5.4,0,0,0-2.3-3.7,7.9,7.9,0,0,0-4.3-1.1A9,9,0,0,0,67,80.7c-2.5,1.7-3.5,5-3.1,8a16,16,0,0,0,.5,2.1l.9,2.3,1.5,4.5a16.9,16.9,0,0,1,.5,2.4c0,.4.1.8.1,1.2a4.5,4.5,0,0,0,.1,1.1,24.6,24.6,0,0,0,1.1,4.5c.5,1.5,1.1,2.9,1.7,4.3l1,2.2.5,1.1c0,.2.1.4.1.6s.1.2.1.4v.2h0c0,.1,0,0-.1.2v-.3a3.3,3.3,0,0,1-2.1,2.8,9.5,9.5,0,0,1-3.3.5,16.2,16.2,0,0,1-3.1-.2,7.6,7.6,0,0,1-3.2-1.1l-.3-.3c-.2-.1-.3-.2-.3-.4a.8.8,0,0,1-.2-.5.4.4,0,0,1,0-.5,2.3,2.3,0,0,1,.8-1.6,4.1,4.1,0,0,1,1.3-1l1.2-.9a8.3,8.3,0,0,0,.8-1.2.9.9,0,0,0,.3-.6v-.2h0v-.3a2.5,2.5,0,0,0-2-1.5,15.1,15.1,0,0,0-3-.1,7.5,7.5,0,0,1-3.3-.4,8,8,0,0,1-2.7-1.8,9.2,9.2,0,0,1-1.9-2.5l-1.5-2.8a10.7,10.7,0,0,1-.7-1.5,8.6,8.6,0,0,1-.1-1.6,10.7,10.7,0,0,1,.6-3.1A25.5,25.5,0,0,1,50.7,92h0a9.1,9.1,0,0,0,.2-3.3c0-1.1-.2-2.3-.3-3.4s-.3-4.6-.3-6.9c.1,2.3.3,4.6.5,6.9s.4,2.2.5,3.4a14,14,0,0,1-.2,3.5H51A14.9,14.9,0,0,0,49.3,98a3.9,3.9,0,0,0,.2,1.5,5.2,5.2,0,0,0,.6,1.3q.8,1.5,1.5,2.7a8.5,8.5,0,0,0,4.4,4,7,7,0,0,0,2.9.3,17.4,17.4,0,0,1,3.2.1,4.4,4.4,0,0,1,1.6.6,2.2,2.2,0,0,1,1.1,1.5.7.7,0,0,1,.1.5h0a.3.3,0,0,1-.1.2v.2c-.1.3-.3.5-.4.8a6.4,6.4,0,0,1-1,1.3l-1.3,1L61,115a1.9,1.9,0,0,0-.7,1.1,1.2,1.2,0,0,0,.6.9,7.2,7.2,0,0,0,2.7.9l3,.2a7.1,7.1,0,0,0,2.9-.5,2.1,2.1,0,0,0,1.5-1.8l.2-.4c-.2.2-.1.2-.1.2h0a.3.3,0,0,1-.1-.2,1.4,1.4,0,0,0-.2-.6,4.2,4.2,0,0,0-.4-1l-1-2.2c-.6-1.4-1.2-2.9-1.7-4.4a35.9,35.9,0,0,1-1.2-4.7c0-.4-.1-.8-.1-1.2a3.7,3.7,0,0,0-.1-1.1,18.5,18.5,0,0,0-.4-2.3c-.4-1.5-1-2.9-1.5-4.4l-.8-2.3a8.6,8.6,0,0,1-.6-2.3,11.6,11.6,0,0,1,.6-4.9,8.3,8.3,0,0,1,3-3.9,8.8,8.8,0,0,1,4.7-1.3A8.7,8.7,0,0,1,76,79.9a6.6,6.6,0,0,1,2.5,4.2,13,13,0,0,1-.3,4.8,8.8,8.8,0,0,1-1,2.2l-1.3,2A45.6,45.6,0,0,1,73.2,97Z" fill="#231f20"/><path d="M55.9,107.9a18.7,18.7,0,0,1-4.3,3.6l-2.4,1.4a9,9,0,0,1-2.8.8l2.4-1.5,2.3-1.5A37.7,37.7,0,0,1,55.9,107.9Z" fill="#231f20"/><path d="M78.3,114.2a2.9,2.9,0,0,1,1.1,1.4,3.1,3.1,0,0,1,.3,1.7,2.5,2.5,0,0,1-1.2-1.3A2.7,2.7,0,0,1,78.3,114.2Z" fill="#231f20"/><path d="M66.9,115.8a2.4,2.4,0,0,1,.3,1.4,2.8,2.8,0,0,1-.6,1.4,2.1,2.1,0,0,1-.4-1.5A1.9,1.9,0,0,1,66.9,115.8Z" fill="#231f20"/><path d="M83.1,55.2a2.1,2.1,0,0,1-1.9,1,3.4,3.4,0,0,1-2-.9,7,7,0,0,1-1.9-3.7l1.3,1.5a8.6,8.6,0,0,0,1.3,1.4,3.1,3.1,0,0,0,1.4.9A2.4,2.4,0,0,0,83.1,55.2Z" fill="#231f20"/><path d="M50.7,56.2l1.9-.3,1.8-.3c.2-.1.5-.2.6-.4s.1-.1.2-.2l.2-.4a12.1,12.1,0,0,0,.5-1.8,3.4,3.4,0,0,1,.2,2,.9.9,0,0,1-.1.5.9.9,0,0,1-.3.6,2.7,2.7,0,0,1-1,.6,5,5,0,0,1-2.1.2A6.7,6.7,0,0,1,50.7,56.2Z" fill="#231f20"/><path d="M77.3,72.4a7.9,7.9,0,0,0-4.1,1.7,11.4,11.4,0,0,0-1.7,1.5A6.7,6.7,0,0,1,69.6,77a5.1,5.1,0,0,1-2.4.7,7.2,7.2,0,0,1-2.5-.3,10.8,10.8,0,0,1-3.8-2.8h0a1.8,1.8,0,0,0-.7-.5l-.8-.5a5.2,5.2,0,0,0-1.8-.2l.9-.2h1l1,.3.9.7h-.1a12.8,12.8,0,0,0,3.8,2.4,5.5,5.5,0,0,0,4-.3,8.3,8.3,0,0,0,1.8-1.3,13.3,13.3,0,0,1,1.9-1.4A7.4,7.4,0,0,1,77.3,72.4Z" fill="#231f20"/><path d="M63.4,76.4a4.6,4.6,0,0,1,1.3-2.2A3.8,3.8,0,0,1,67,73.1a4.7,4.7,0,0,1,4.5,2.1,8.5,8.5,0,0,0-2.2-.9,8.3,8.3,0,0,0-2.2-.3,5,5,0,0,0-2,.9A11.4,11.4,0,0,0,63.4,76.4Z" fill="#231f20"/><path d="M66.4,68.3s-2.7.9-1.6,2a6.1,6.1,0,0,0,1.9,1.4s2.1-1.1,2.1-2S66.4,68.3,66.4,68.3Z" fill="#231f20"/><path d="M55.9,64.4a5.4,5.4,0,0,1,3.7-1.2A3.2,3.2,0,0,1,62.4,66S58.5,66.4,55.9,64.4Z" fill="none" stroke="#231f20" stroke-miterlimit="10"/><path d="M78.9,62.2a12.5,12.5,0,0,0-3.7,0,3.1,3.1,0,0,0-2.7,3A9.7,9.7,0,0,0,78.9,62.2Z" fill="none" stroke="#231f20" stroke-miterlimit="10"/><path d="M70.9,60.9a5.8,5.8,0,0,1-.3-1.9,3.8,3.8,0,0,1,.3-1,1.1,1.1,0,0,1,.6-.7,9.5,9.5,0,0,0-.4,1.8A11,11,0,0,1,70.9,60.9Z" fill="#231f20"/><path d="M62.1,61.2c0-.6.1-1.2.1-1.8a2.2,2.2,0,0,0,.1-.8c-.1-.3-.1-.6-.2-.9a1.4,1.4,0,0,1,.5.8,3.4,3.4,0,0,1,.1,1,2.9,2.9,0,0,1-.2.9A2,2,0,0,1,62.1,61.2Z" fill="#231f20"/><ellipse cx="59.4" cy="64.5" rx="1.1" ry="0.5" transform="translate(-16.2 108.8) rotate(-77.7)" fill="#231f20"/><ellipse cx="75" cy="63.4" rx="0.5" ry="1.1" transform="translate(-15.8 25.9) rotate(-17.8)" fill="#231f20"/></g></svg>