<svg xmlns="http://www.w3.org/2000/svg" width="144.9" height="144" viewBox="0 0 144.9 144"><path fill="#231f20" d="M1.5 80.1v-1.3l8.8-.3v-5.1h1.1l.3 6.4zm.2-11.7v-1.5l10.4-2.6-.1 1.4-3.1.8-.4 3.9 2.9 1.4v1.4zm6.1-1.6l-4.6 1.1 4.3 2zM2.6 61l.4-1.3 4.7 1.2-3.5-6.1.5-1.8 2.8 5.1 6.9-2.8L14 57l-5.8 2.3 1.1 2 3.4.8-.3 1.3zm2.9-10.3L8.3 44l1.1.5L7.1 50l2.8 1.1 2.2-5 1 .4-2.1 5.1 3.2 1.3 2.3-5.6 1.1.5-2.8 6.8zm4.2-9.5l3.6-6 1 .6-2.8 4.9 2.6 1.5 2.5-4.2 1.1.6-2.6 4.2 4 2.4-.7 1.1zm5.1-8l.8-1.1 8.1 6-.8 1.1zm2.7-3.6l4.9-5.4.9.8-4 4.4 2.3 2.1 3.7-4.1.8.8-3.7 4.1 2.5 2.3 4.1-4.5.9.8-5 5.4zm7.1-7.4l1-.9 5.7 6.8 3.9-3.3.7 1-4.9 4.1zm6.9-5.6l3.4-2.2a4 4 0 0 1 3.5-.4 5.7 5.7 0 0 1 2.6 2.3 8.2 8.2 0 0 1 1.1 2.8 3.6 3.6 0 0 1-1.9 3.8l-3.4 2.2zm7.9 5.5a3.5 3.5 0 0 0 .9-.7 2.8 2.8 0 0 0 .5-1.6 3.7 3.7 0 0 0-.4-1.6l-.4-.9a4.8 4.8 0 0 0-2.2-2.1 2.6 2.6 0 0 0-2.5.4l-2 1.2 4.1 6.6zm83.4 2.5l1.1 1-4.6 9.7-1.1-1.1 1.4-2.8-2.7-2.9-2.9 1.4-1-1zm-2.6 5.7l2-4.2-4.3 2zm7.8-.2l.9 1.3-3.7 8.8 6.6-4.7.8 1.1-8.2 5.8-.9-1.2 3.6-8.9-6.5 4.7-.8-1zm6.2 9.4l.7 1.2-8.8 4.9-.6-1.2zm2.3 3.9l.7 1.8-6.7 5.9 8.9-.6.7 1.8-9.3 3.8-.4-1.2 5.4-2.2 1-.4 1.4-.6-8.9.6-.5-1.3 6.7-5.9-.3.2-1 .4-1 .4-5.5 2.3-.5-1.2zm5.2 15l.3 1.5-9 5.7-.3-1.4 2.7-1.7-.9-3.8-3.1-.4-.3-1.4zm-5.3 3.5l4-2.5-4.7-.6zm6.7 3.8V67l-8.8.8.4 5h-1.2l-.5-6.3zM15.3 96.2l-6.2 4.7 7.8-1.1.5 1.2-6 5.1 7.6-1.5.6 1.3-9.5 1.5-.6-1.2 6.2-5.1-8 1.1-.5-1.2 7.5-6.1zm4.9 10.2l3.8 5.7-1 .7-3.1-4.7-2.3 1.6 2.8 4.3-.9.6-2.8-4.3L14 112l3.2 4.8-.9.6-3.9-5.8zm4.6 6.7l.9 1-6.2 5.4 3.1 3.6-.8.7-4-4.5zm4.7 5.3l4.9 4.4-.8.9-3.9-3.6-1.9 2.1 3.5 3.1-.8.8-3.4-3.1-2.9 3.2-.9-.9zm7.3 6.1l1.2.9-2.6 9.6-1.1-.8.8-2.9-3-2.1-2.5 1.6-1.1-.7zm-1.4 5.7l1.2-4.2-3.6 2.5zm6.1-2.5l3.8 2a4.5 4.5 0 0 1 1.5 1.1 2.1 2.1 0 0 1 .1 2.5 2.5 2.5 0 0 1-.9 1.1 2.8 2.8 0 0 1-1.3.3 2 2 0 0 1 .5.9 2.1 2.1 0 0 1-.3 1.2l-.5 1.1a4.1 4.1 0 0 0-.3.8 1.5 1.5 0 0 0 .1.7h-.1l-1.4-.7a.4.4 0 0 1 .1-.3 1.7 1.7 0 0 1 .3-.7l.6-1.4a1.4 1.4 0 0 0 0-1.4l-1-.7-2.5-1.2-1.8 3.6-1.2-.6zm1.8 5.7a1.9 1.9 0 0 0 1.4.3c.4 0 .7-.3 1-.9a1.4 1.4 0 0 0 0-1.5l-.8-.6-2.7-1.4-1.5 2.8zm6.3-1.7l6.5 2.2-.4 1.1-5.3-1.8-.9 2.6 4.9 1.7-.4 1.1-4.9-1.7-1 3 5.4 1.8-.4 1.1-6.6-2.3zm55.5 2.6a2 2 0 0 0 1 .9 2.2 2.2 0 0 0 2.4-.3 2.4 2.4 0 0 0 .9-.8 1.6 1.6 0 0 0 .3-1.8 1.7 1.7 0 0 0-1-.7l-1.5.3-1.3.4a5.4 5.4 0 0 1-1.8.4 2 2 0 0 1-1.6-1.1 2.9 2.9 0 0 1-.3-2.2 3.1 3.1 0 0 1 1.7-1.9 4.5 4.5 0 0 1 2.5-.7 2.8 2.8 0 0 1 2 1.4l-1.1.7a2.2 2.2 0 0 0-.9-.8c-.6-.3-1.2-.1-2 .3a2.4 2.4 0 0 0-1.1 1.2 1.7 1.7 0 0 0 .1 1.2 1.2 1.2 0 0 0 1 .6l1.7-.4 1.3-.4 1.5-.3a2.7 2.7 0 0 1 1.9 3.7 4.4 4.4 0 0 1-1.9 1.9 3.7 3.7 0 0 1-2.8.6 3.1 3.1 0 0 1-2-1.6zm10.1-13.1a4.6 4.6 0 0 1 2.7 1.8 5.3 5.3 0 0 1 1.4 3.4 4.4 4.4 0 0 1-1.8 3.5 4.1 4.1 0 0 1-3.6 1.1 5.2 5.2 0 0 1-3-2 5.6 5.6 0 0 1-1.3-3.1 4.2 4.2 0 0 1 1.7-3.6 4 4 0 0 1 3.9-1.1zm2.9 5.3a4.5 4.5 0 0 0-1.2-2.6 3.6 3.6 0 0 0-2.3-1.5 3 3 0 0 0-2.5.7 3.2 3.2 0 0 0-1.3 2.3 4.5 4.5 0 0 0 1.2 2.8 4.8 4.8 0 0 0 2.2 1.6 3.2 3.2 0 0 0 2.7-.8 2.9 2.9 0 0 0 1.2-2.5zm2.6-12.2a3 3 0 0 1 2.3.6l-.8 1a2.4 2.4 0 0 0-1.6-.4 2.6 2.6 0 0 0-1.6 1 2.7 2.7 0 0 0-.8 2.3 4.7 4.7 0 0 0 1.7 2.6 4.5 4.5 0 0 0 2.5 1.2 2.5 2.5 0 0 0 2.2-1 2.3 2.3 0 0 0 .7-2.3 4.6 4.6 0 0 0-.7-1.4l.8-1a4.3 4.3 0 0 1 1.1 2.5 3.9 3.9 0 0 1-1.1 3 3.8 3.8 0 0 1-2.6 1.4c-1.3.2-2.6-.4-4-1.6a4.6 4.6 0 0 1-1.7-3.1 4.1 4.1 0 0 1 1.1-3.4 4.3 4.3 0 0 1 2.5-1.4zm1.2-2.7l.7-1 7.6 5.5-.8 1.1zm1.9-2.5l3.4-5.9 1 .6-2.8 4.8 2.4 1.5 2.7-4.5.9.5-2.7 4.5 2.8 1.6 2.9-4.9.9.6-3.5 6zm6.7-13.4l1 .4-1.2 3 7.5 3.1-.5 1.2-7.5-3.2-1.3 3-1-.4zm0 0l.4-1.4 5-1.5-3.6-3.8.4-1.4 4.4 4.9 3.7.9-.4 1.3-3.6-1z"/><circle cx="72.5" cy="74.8" r="58.1" fill="none" stroke="#231f20" stroke-miterlimit="10" stroke-width="1.02"/><path fill="#fff" d="M105.1 99.8l5.6 5s1.6 3.1-2.6 2.6c0 0-.1 1.8-3.9 1.4 0 0-.5 1.4-3.8.9a6.7 6.7 0 0 1-4.8-3s2.7-4.6 9.5-6.9z"/><path fill="#231f20" d="M101.6 54.3s.7 11.5 0 17.7 2.3 17.7 3.5 27.8c0 0-6.9 4.1-8.9 7.6H50.9s-11.8-7.6-11-19.6 10.2-20 10.2-20a56.1 56.1 0 0 1 11.1-26.4s.9-5.8 3-7.9c0 0-2.8-4.6-2.8-8.1s1-6.5-3-8.5h-4.2s-4.9-1.1-4.9-3.9 8.6-8.5 13.4-10.6c2.1-1 3.5 1.6 3.5 1.6h6.3a18.4 18.4 0 0 1 7.8-1.8c4.4 0 11 2.8 11 2.8s3.1-3.7 5.4-3.7 8.1 3.7 12.4 6.5-2.9 8.1-2.9 8.1-2.5 4.5-5.9 0c0 0 1.5 5.6-3.6 10.8v8.6s4.6 4 4.9 19z"/><path fill="#fff" d="M77.8 27.3s6.8 5 7.8 8.2-2.5 6.2-7.8 6.2-9.6 0-9.6-4.4 4.4-8.8 5.5-9.9l.9-11.2s1.8-.6 2.4 0 .8 11.1.8 11.1zm2.9-5.5s1.9-3.6 5-3.6 5 1.5 5 3-.4 4.8-4.1 5.6-5.9-5-5.9-5zm-11.5-3.6s2.3 1 2.3 4.7a4.4 4.4 0 0 1-3.3 4.5s-4-1.7-4-3.9 1.5-4.2 5-5.3z"/><path fill="#231f20" d="M83.6 21.8s0-1.3 2.1-1.3 2.1 1.3 2.1 1.3-.9 2.1-2.1 2.1-2.1-2.1-2.1-2.1zm-14.8-.6s-1.7.3-1.7 1.6 1.7 1.7 1.7 1.7.9.1 1.7-1.6-1.7-1.7-1.7-1.7zm4.1 12.1s-2.2 1.6-2.2 3.4 1.7 2.8 4.4 2.8 5.1-1 5.1-3.1a3.7 3.7 0 0 0-1.9-3.1z"/><path fill="#fff" d="M64.2 4.5s1.7-.4 1.7 1.7-8.3 8.7-8.3 8.7-2.9.3-1.5-1.4zm33.9-2.1s-2.2-.4-1.5 1.5 3.3 4.6 3.3 4.6 1.2 2-1.7 3.3c0 0-1.2 2.4 1.5 1.5s2.7-4.6 2-5.4-3.6-5.5-3.6-5.5zm1.8 45.7l1.3-1.8c.7-2.9-1.4-8.2-1.4-8.2l.6-1.7c.7-3.5-3.7-6-3.7-6a9.6 9.6 0 0 1-5.7 6.3c-4.8 2.2-10 6.6-10 7.4s-5.5-1-5.9.6c-3.2-1.5-5.3-2.7-7.5-5.8.5-.9-.5-4-.5-4-2.4-2.3-4.3-2.2-4.3-2.2a10.5 10.5 0 0 0-4.7-1.2c-2.7 0-7.8 7.4-7.8 7.4s6.2 1 10.4-.5a7 7 0 0 0 1.9 5.5c2.8 2.8 8.1 7.1 11.6 7.9a15.2 15.2 0 0 0 6.2 0l13 9.1s3.4 3 5.3 0a66.8 66.8 0 0 0 3.7-7s1.6-4.8-2.5-5.8z"/><path fill="#231f20" d="M94.7 51.8l3.4-2.8 1.7-1.3a7.9 7.9 0 0 0 1.4-1.7 3.6 3.6 0 0 1-.9 2.2 8.1 8.1 0 0 1-1.6 1.6 7.6 7.6 0 0 1-1.9 1.2zm5.7-15.6a4.6 4.6 0 0 1-.5 2.3 13.3 13.3 0 0 1-1.4 1.9 8 8 0 0 1-1.7 1.5 7.1 7.1 0 0 1-2.1 1.1c1-1.2 2.1-2.2 3.1-3.3a15.2 15.2 0 0 0 2.6-3.5zm-42.9 0a9.7 9.7 0 0 1 2.2-1.9l1.2-.7 1.2-.7c0 .5-.4.9-.7 1.3a9.4 9.4 0 0 1-1.2.9 7.3 7.3 0 0 1-2.7 1.1zm48.6 68.6l.8.4.6.6a3.1 3.1 0 0 1 .6 1.6 1.8 1.8 0 0 1-.5-.7l-.5-.6a14.7 14.7 0 0 1-1-1.3zm-3.1 2a1.7 1.7 0 0 1 1.1.6 1.5 1.5 0 0 1 .2 1.3l-.3-.5-.3-.5z"/><path fill="#fff" stroke="#231f20" stroke-miterlimit="10" d="M60.8 114.5s-2.5 1.9-7.9 1.9-6.5-2.7-6.5-2.7-9-.7-11.5-9.5 16.3-32.3 16.3-32.3 1.4-5-.6-9.4-4.7-7-4.7-9.7 2-4.2 3.7-3.9 5.3 1.7 6.3 3.9a31.7 31.7 0 0 1 12.2-2.6c6.6 0 9.2 1.4 9.2 1.4a11.1 11.1 0 0 1 7.4-5.2c5.2-.9 1.9 10.8.9 11.8s-.3 3.9-.3 3.9a10.5 10.5 0 0 1-1.1 7.1c-2.1 3.5-1 9.6-.3 11.8s1.4 12-.2 16.5-3.7 8.7-2.8 12.5 3.7 3.9-.3 6.8-9.1-1.1-9.1-1.1"/><path fill="#231f20" d="M67.6 104.5l5.4-7.7c.9-1.3 1.8-2.6 2.6-3.9a18.3 18.3 0 0 0 2.1-4.2 11.3 11.3 0 0 0 .2-4.5 5.4 5.4 0 0 0-2.3-3.7 7.9 7.9 0 0 0-4.3-1.1 9 9 0 0 0-4.3 1.3c-2.5 1.7-3.5 5-3.1 8a16 16 0 0 0 .5 2.1l.9 2.3 1.5 4.5a16.9 16.9 0 0 1 .5 2.4c0 .4.1.8.1 1.2a4.5 4.5 0 0 0 .1 1.1 24.6 24.6 0 0 0 1.1 4.5c.5 1.5 1.1 2.9 1.7 4.3l1 2.2.5 1.1c0 .2.1.4.1.6s.1.2.1.4v.2c0 .1 0 0-.1.2v-.3a3.3 3.3 0 0 1-2.1 2.8 9.5 9.5 0 0 1-3.3.5 16.2 16.2 0 0 1-3.1-.2 7.6 7.6 0 0 1-3.2-1.1l-.3-.3c-.2-.1-.3-.2-.3-.4a.8.8 0 0 1-.2-.5.4.4 0 0 1 0-.5 2.3 2.3 0 0 1 .8-1.6 4.1 4.1 0 0 1 1.3-1l1.2-.9a8.3 8.3 0 0 0 .8-1.2.9.9 0 0 0 .3-.6v-.5a2.5 2.5 0 0 0-2-1.5 15.1 15.1 0 0 0-3-.1 7.5 7.5 0 0 1-3.3-.4 8 8 0 0 1-2.7-1.8 9.2 9.2 0 0 1-1.9-2.5l-1.5-2.8a10.7 10.7 0 0 1-.7-1.5 8.6 8.6 0 0 1-.1-1.6 10.7 10.7 0 0 1 .6-3.1 25.5 25.5 0 0 1 1.5-2.7 9.1 9.1 0 0 0 .2-3.3c0-1.1-.2-2.3-.3-3.4s-.3-4.6-.3-6.9c.1 2.3.3 4.6.5 6.9s.4 2.2.5 3.4a14 14 0 0 1-.2 3.5H51a14.9 14.9 0 0 0-1.7 5.8 3.9 3.9 0 0 0 .2 1.5 5.2 5.2 0 0 0 .6 1.3q.8 1.5 1.5 2.7a8.5 8.5 0 0 0 4.4 4 7 7 0 0 0 2.9.3 17.4 17.4 0 0 1 3.2.1 4.4 4.4 0 0 1 1.6.6 2.2 2.2 0 0 1 1.1 1.5.7.7 0 0 1 .1.5.3.3 0 0 1-.1.2v.2c-.1.3-.3.5-.4.8a6.4 6.4 0 0 1-1 1.3l-1.3 1-1.1 1a1.9 1.9 0 0 0-.7 1.1 1.2 1.2 0 0 0 .6.9 7.2 7.2 0 0 0 2.7.9l3 .2a7.1 7.1 0 0 0 2.9-.5 2.1 2.1 0 0 0 1.5-1.8l.2-.4c-.2.2-.1.2-.1.2a.3.3 0 0 1-.1-.2 1.4 1.4 0 0 0-.2-.6 4.2 4.2 0 0 0-.4-1l-1-2.2c-.6-1.4-1.2-2.9-1.7-4.4a35.9 35.9 0 0 1-1.2-4.7c0-.4-.1-.8-.1-1.2a3.7 3.7 0 0 0-.1-1.1 18.5 18.5 0 0 0-.4-2.3c-.4-1.5-1-2.9-1.5-4.4l-.8-2.3a8.6 8.6 0 0 1-.6-2.3 11.6 11.6 0 0 1 .6-4.9 8.3 8.3 0 0 1 3-3.9 8.8 8.8 0 0 1 4.7-1.3 8.7 8.7 0 0 1 4.7 1.1 6.6 6.6 0 0 1 2.5 4.2 13 13 0 0 1-.3 4.8 8.8 8.8 0 0 1-1 2.2l-1.3 2a45.6 45.6 0 0 1-2.7 3.9z"/><path fill="#231f20" d="M55.9 107.9a18.7 18.7 0 0 1-4.3 3.6l-2.4 1.4a9 9 0 0 1-2.8.8l2.4-1.5 2.3-1.5a37.7 37.7 0 0 1 4.8-2.8zm22.4 6.3a2.9 2.9 0 0 1 1.1 1.4 3.1 3.1 0 0 1 .3 1.7 2.5 2.5 0 0 1-1.2-1.3 2.7 2.7 0 0 1-.2-1.8zm-11.4 1.6a2.4 2.4 0 0 1 .3 1.4 2.8 2.8 0 0 1-.6 1.4 2.1 2.1 0 0 1-.4-1.5 1.9 1.9 0 0 1 .7-1.3zm16.2-60.6a2.1 2.1 0 0 1-1.9 1 3.4 3.4 0 0 1-2-.9 7 7 0 0 1-1.9-3.7l1.3 1.5a8.6 8.6 0 0 0 1.3 1.4 3.1 3.1 0 0 0 1.4.9 2.4 2.4 0 0 0 1.8-.2zm-32.4 1l1.9-.3 1.8-.3c.2-.1.5-.2.6-.4s.1-.1.2-.2l.2-.4a12.1 12.1 0 0 0 .5-1.8 3.4 3.4 0 0 1 .2 2 .9.9 0 0 1-.1.5.9.9 0 0 1-.3.6 2.7 2.7 0 0 1-1 .6 5 5 0 0 1-2.1.2 6.7 6.7 0 0 1-1.9-.5zm26.6 16.2a7.9 7.9 0 0 0-4.1 1.7 11.4 11.4 0 0 0-1.7 1.5 6.7 6.7 0 0 1-1.9 1.4 5.1 5.1 0 0 1-2.4.7 7.2 7.2 0 0 1-2.5-.3 10.8 10.8 0 0 1-3.8-2.8 1.8 1.8 0 0 0-.7-.5l-.8-.5a5.2 5.2 0 0 0-1.8-.2l.9-.2h1l1 .3.9.7h-.1a12.8 12.8 0 0 0 3.8 2.4 5.5 5.5 0 0 0 4-.3 8.3 8.3 0 0 0 1.8-1.3 13.3 13.3 0 0 1 1.9-1.4 7.4 7.4 0 0 1 4.5-1.2z"/><path fill="#231f20" d="M63.4 76.4a4.6 4.6 0 0 1 1.3-2.2 3.8 3.8 0 0 1 2.3-1.1 4.7 4.7 0 0 1 4.5 2.1 8.5 8.5 0 0 0-2.2-.9 8.3 8.3 0 0 0-2.2-.3 5 5 0 0 0-2 .9 11.4 11.4 0 0 0-1.7 1.5zm3-8.1s-2.7.9-1.6 2a6.1 6.1 0 0 0 1.9 1.4s2.1-1.1 2.1-2-2.4-1.4-2.4-1.4z"/><path fill="none" stroke="#231f20" stroke-miterlimit="10" d="M55.9 64.4a5.4 5.4 0 0 1 3.7-1.2 3.2 3.2 0 0 1 2.8 2.8s-3.9.4-6.5-1.6zm23-2.2a12.5 12.5 0 0 0-3.7 0 3.1 3.1 0 0 0-2.7 3 9.7 9.7 0 0 0 6.4-3z"/><path fill="#231f20" d="M70.9 60.9a5.8 5.8 0 0 1-.3-1.9 3.8 3.8 0 0 1 .3-1 1.1 1.1 0 0 1 .6-.7 9.5 9.5 0 0 0-.4 1.8 11 11 0 0 1-.2 1.8zm-8.8.3c0-.6.1-1.2.1-1.8a2.2 2.2 0 0 0 .1-.8c-.1-.3-.1-.6-.2-.9a1.4 1.4 0 0 1 .5.8 3.4 3.4 0 0 1 .1 1 2.9 2.9 0 0 1-.2.9 2 2 0 0 1-.4.8z"/><ellipse cx="59.4" cy="64.5" fill="#231f20" rx="1.1" ry=".5" transform="rotate(-77.7 59.44 64.456)"/><ellipse cx="75" cy="63.4" fill="#231f20" rx=".5" ry="1.1" transform="rotate(-17.8 74.797 63.398)"/></svg>